<svg xmlns="http://www.w3.org/2000/svg" width="18" height="18" viewBox="0 0 24 24" aria-hidden="true">
  <path fill="#000000" d="M16.365 1.43c-.896.536-1.478 1.534-1.365 2.58 1.066.084 2.154-.572 2.787-1.423.906-.974 1.478-2.47 1.365-3.587-1.13.045-2.33.75-2.787 1.43zM20.088 7.24c-1.115-1.387-2.66-1.558-3.244-1.586-1.348-.13-2.623.79-3.303.79-.678 0-1.73-.77-2.85-.75-1.465.02-2.83.854-3.59 2.17-1.526 2.62-.396 6.494 1.095 8.62.72 1.014 1.57 2.15 2.7 2.11 1.09-.05 1.5-.69 2.82-.69 1.32 0 1.69.69 2.82.67 1.17-.02 1.91-1.06 2.63-2.08.83-1.19 1.17-2.35 1.18-2.41-.026-.01-2.26-.87-2.29-3.46-.02-2.16 1.76-3.18 1.84-3.23-.997-1.461 1.12-3.45.16-4.73z"/>
</svg>

