<svg xmlns="http://www.w3.org/2000/svg" width="18" height="18" viewBox="0 0 48 48" aria-hidden="true">
  <path fill="#FFC107" d="M43.611 20.083h-1.611V20H24v8h11.303c-1.649 4.657-6.08 8-11.303 8-6.627 0-12-5.373-12-12s5.373-12 12-12c3.059 0 5.842 1.156 7.961 3.039l5.657-5.657C33.64 7.163 29.084 5 24 5 12.955 5 4 13.955 4 25s8.955 20 20 20 20-8.955 20-20c0-1.341-.138-2.647-.389-3.917z"/>
  <path fill="#FF3D00" d="M6.306 14.691l6.571 4.818C14.6 16.2 18.961 13 24 13c3.059 0 5.842 1.156 7.961 3.039l5.657-5.657C33.64 7.163 29.084 5 24 5 16.318 5 9.652 9.186 6.306 14.691z"/>
  <path fill="#4CAF50" d="M24 45c5.083 0 9.64-1.163 13.303-3.383l-6.123-5.173C29.104 37.805 26.7 38.5 24 38.5c-5.19 0-9.594-3.315-11.271-7.939l-6.54 5.038C9.44 41.56 16.14 45 24 45z"/>
  <path fill="#1976D2" d="M43.611 20.083H24v8h11.303c-.757 2.135-2.204 3.947-4.101 5.196l6.123 5.173C39.4 35.527 44 30.418 44 25c0-1.341-.138-2.647-.389-3.917z"/>
</svg>

