<?xml version="1.0" encoding="UTF-8"?>
<svg id="Calque_1" xmlns="http://www.w3.org/2000/svg" xmlns:xlink="http://www.w3.org/1999/xlink" version="1.1" viewBox="0 0 959.53 959.53">
  <!-- Generator: Adobe Illustrator 29.8.2, SVG Export Plug-In . SVG Version: 2.1.1 Build 3)  -->
  <defs>
    <style>
      .st0 {
        fill: url(#Dégradé_sans_nom_119);
      }

      .st1 {
        fill: #fff;
      }
    </style>
    <linearGradient id="Dégradé_sans_nom_119" data-name="Dégradé sans nom 119" x1="140.52" y1="819.01" x2="819.01" y2="140.52" gradientUnits="userSpaceOnUse">
      <stop offset="0" stop-color="#3498db"/>
      <stop offset="1" stop-color="#2980b9"/>
    </linearGradient>
  </defs>
  <circle class="st0" cx="479.77" cy="479.77" r="479.77"/>
  <path class="st1" d="M284.56,330.86h197.61v143.97h-217.61v-123.97c0-11.04,8.96-20,20-20Z"/>
  <path class="st1" d="M703.57,474.83h-211.3v-143.97h192.92c10.15,0,18.38,8.27,18.38,18.48v125.49s0,0,0,0Z"/>
  <path class="st1" d="M264.56,485.26h217.61v145.88h-197.61c-11.04,0-20-8.96-20-20v-125.88h0Z"/>
  <path class="st1" d="M492.27,485.26h211.3v125.88c0,11.04-8.96,20-20,20h-191.3v-145.88h0Z"/>
</svg>